<svg xmlns="http://www.w3.org/2000/svg" width="26" height="26" viewBox="0 0 26 26" fill="none">
  <path d="M20.9561 16.455L17.9993 16.1174C17.2892 16.0359 16.5908 16.2804 16.0902 16.7809L13.9483 18.9228C10.6539 17.2466 7.95326 14.5575 6.27698 11.2515L8.43054 9.0979C8.9311 8.59734 9.17555 7.89888 9.09407 7.18879L8.75648 4.25527C8.61679 3.07954 7.62732 2.19482 6.43995 2.19482H4.42608C3.11066 2.19482 2.01642 3.28907 2.0979 4.6045C2.71487 14.5459 10.6656 22.485 20.5952 23.1019C21.9107 23.1834 23.0049 22.0892 23.0049 20.7738V18.7599C23.0166 17.5841 22.1318 16.5947 20.9561 16.455Z" fill="#4F4F4F"/>
</svg>