<svg xmlns="http://www.w3.org/2000/svg" width="26" height="26" viewBox="0 0 26 26" fill="none">
  <path d="M20.9139 4.82788H4.18477C3.03464 4.82788 2.10408 5.76889 2.10408 6.91902L2.09363 19.4659C2.09363 20.616 3.03464 21.557 4.18477 21.557H20.9139C22.064 21.557 23.005 20.616 23.005 19.4659V6.91902C23.005 5.76889 22.064 4.82788 20.9139 4.82788ZM20.4957 9.27155L13.1035 13.893C12.7689 14.1021 12.3298 14.1021 11.9952 13.893L4.603 9.27155C4.3416 9.10426 4.18477 8.82196 4.18477 8.51874C4.18477 7.81821 4.94803 7.39998 5.54401 7.76593L12.5493 12.1469L19.5546 7.76593C20.1506 7.39998 20.9139 7.81821 20.9139 8.51874C20.9139 8.82196 20.757 9.10426 20.4957 9.27155Z" fill="#4F4F4F"/>
</svg>